<?xml version="1.0" encoding="UTF-8"?>
<svg width="28px" height="20px" viewBox="0 0 28 20" version="1.1" xmlns="http://www.w3.org/2000/svg">
    <title>ic_flag_eg</title>
    <g id="Page-1" stroke="none" stroke-width="1" fill="none" fill-rule="evenodd">
        <g id="ic_flag_eg">
            <!-- Red Stripe -->
            <rect id="Red" fill="#CE1126" x="0" y="0" width="28" height="6.66666667"></rect>
            <!-- White Stripe -->
            <rect id="White" fill="#FFFFFF" x="0" y="6.66666667" width="28" height="6.66666667"></rect>
            <!-- Black Stripe -->
            <rect id="Black" fill="#000000" x="0" y="13.3333333" width="28" height="6.66666667"></rect>
            <!-- Eagle of Saladin -->
            <g id="Eagle" transform="translate(14,10) scale(0.1)">
                <path d="M0,-35 L5,-10 L15,-10 L8,0 L12,10 L0,5 L-12,10 L-8,0 L-15,-10 L-5,-10 Z" fill="#FFD700" stroke="#000000" stroke-width="1"></path>
                <path d="M0,-35 C2,-20 10,-10 8,0 C6,10 12,10 0,5 C-12,10 -6,10 -8,0 C-10,-10 -2,-20 0,-35 Z" fill="#FFD700" stroke="#000000" stroke-width="1"></path>
            </g>
        </g>
    </g>
</svg>
